<?xml version="1.0" encoding="UTF-8"?>
<svg width="344px" height="343px" viewBox="0 0 344 343" version="1.1" xmlns="http://www.w3.org/2000/svg" xmlns:xlink="http://www.w3.org/1999/xlink">
    <!-- Generator: Sketch 56.3 (81716) - https://sketch.com -->
    <title>favicon-blue</title>
    <desc>Created with Sketch.</desc>
    <defs>
        <linearGradient x1="-6.34287438%" y1="54.7900195%" x2="103.497062%" y2="37.5317191%" id="linearGradient-1">
            <stop stop-color="#EB6C2A" offset="0%"></stop>
            <stop stop-color="#FAC602" offset="100%"></stop>
        </linearGradient>
        <linearGradient x1="1.89402367%" y1="65.6434333%" x2="91.7169523%" y2="41.0328563%" id="linearGradient-2">
            <stop stop-color="#0E3287" offset="0%"></stop>
            <stop stop-color="#668ADE" offset="100%"></stop>
        </linearGradient>
    </defs>
    <g id="Page-1" stroke="none" stroke-width="1" fill="none" fill-rule="evenodd">
        <g id="favicon-blue">
            <ellipse id="Oval" fill="#FFFFFF" cx="172.5" cy="172" rx="171.5" ry="171"></ellipse>
            <g id="Combined-Shape" transform="translate(20.142256, 167.040000)" fill="url(#linearGradient-1)">
                <path d="M0,85.1695894 C54.4317848,39.8501679 112.957117,12.510516 175.575995,3.15063353 L141.869159,175.697998 C80.35391,172.343545 27.4678227,136.571041 0,85.1695894 Z M237.320429,-3.15544362e-30 C274.016354,2.01880037 311.297008,12.0447784 317.562457,39.9266986 C317.828513,41.1106778 318.147092,42.1309814 318.506055,43.0138311 C305.007544,101.769188 261.325882,149.000597 204.656681,167.512407 L237.320429,-3.15544362e-30 Z M47.8146574,126.406234 L109.560497,113.181644 L128.398619,28.3679799 C120.250223,30.9400797 112.229875,33.9893655 104.337574,37.5158371 C83.663019,46.75373 69.5721897,53.5546982 62.0650858,57.9187416 L47.8146574,126.406234 Z"></path>
            </g>
            <g id="Combined-Shape" fill="url(#linearGradient-2)">
                <path d="M273.190759,86.3842755 L208.803611,103.209829 L204.894351,123.221571 C149.93814,134.008485 86.6404369,173.517668 15.0012415,241.749121 C5.36246428,220.309319 0,196.530895 0,171.5 C0,76.7831654 76.7831654,5.68434189e-14 171.5,5.68434189e-14 C257.237169,5.68434189e-14 328.279897,62.914383 340.979752,145.094717 C320.305401,130.404078 295.548089,121.91627 266.707822,119.631296 L273.190759,86.3842755 Z M160.573633,128.356405 L180.5,24.575261 L96.448745,59.7816708 L108.205273,76.4658329 L91.0578293,165.722791 C102.634846,158.092814 116.314811,150.237723 132.097723,142.157516 C144.217431,135.952721 153.709401,131.352351 160.573633,128.356405 Z"></path>
            </g>
        </g>
    </g>
</svg>